<?xml version="1.0" encoding="utf-8"?>
<!-- Generator: Adobe Illustrator 19.2.1, SVG Export Plug-In . SVG Version: 6.00 Build 0)  -->
<svg version="1.1" id="Слой_1" xmlns="http://www.w3.org/2000/svg" xmlns:xlink="http://www.w3.org/1999/xlink" x="0px" y="0px"
	 viewBox="0 0 306.8 60.8" enable-background="new 0 0 306.8 60.8" xml:space="preserve">
<radialGradient id="SVGID_1_" cx="117.4787" cy="39.9251" r="20.8092" gradientTransform="matrix(0.9881 0 0 -0.949 1.1193 59.2704)" gradientUnits="userSpaceOnUse">
	<stop  offset="0" style="stop-color:#BD5AA2"/>
	<stop  offset="0.1866" style="stop-color:#B8569B"/>
	<stop  offset="0.3762" style="stop-color:#AC4D8E"/>
	<stop  offset="0.5673" style="stop-color:#9A407B"/>
	<stop  offset="0.7594" style="stop-color:#812D63"/>
	<stop  offset="0.9505" style="stop-color:#641547"/>
	<stop  offset="1" style="stop-color:#5C0D40"/>
</radialGradient>
<path fill="url(#SVGID_1_)" d="M117.2,1.6c-11.4,0-20.6,8.8-20.6,19.7S105.8,41,117.2,41c11.3,0,20.5-8.7,20.6-19.5v-0.4
	C137.6,10.4,128.5,1.6,117.2,1.6z"/>
<path fill="#501C54" d="M3.8,59l-2.2-8h1.2l1.5,5.9l0.2,0.9l0,0c0.1-0.3,0.1-0.6,0.2-0.9L6.4,51h1L9,56.9l0.2,0.9l0,0
	c0-0.3,0.1-0.6,0.2-0.9L11,51h1.2L10,59H8.6l-1.5-5.2l-0.2-1l0,0c-0.1,0.4-0.2,0.8-0.3,1.1l-1.5,5.2L3.8,59L3.8,59z"/>
<polygon fill="#501C54" points="38,59 38,51 42.9,51 42.9,52 39.1,52 39.1,54.6 42.2,54.6 42.2,55.5 39.1,55.5 39.1,58.1 43.1,58.1 
	43.1,59 "/>
<rect x="96.5" y="51" fill="#501C54" width="1.2" height="8"/>
<path fill="#501C54" d="M124.3,59v-8h1.2l3.8,5.2l0.7,1.1l0,0c0-0.5-0.1-0.9-0.1-1.1V51h1.2v8h-1.2l-3.8-5.2l-0.7-1.1l0,0
	c0,0.5,0.1,0.9,0.1,1.1V59H124.3z"/>
<path fill="#501C54" d="M157,58.2l0.7-0.9c0.3,0.3,0.6,0.5,1,0.7s0.8,0.3,1.1,0.3c0.4,0,0.8-0.1,1.1-0.3s0.4-0.5,0.4-0.9
	c0-0.3-0.1-0.6-0.4-0.9c-0.3-0.2-0.6-0.4-1-0.6c-0.4-0.2-0.8-0.3-1.2-0.5s-0.7-0.5-1-0.8s-0.4-0.8-0.4-1.1c0-0.7,0.3-1.2,0.8-1.6
	c0.5-0.4,1.2-0.6,2-0.6c1,0,1.7,0.3,2.4,0.9l-0.5,0.9c-0.2-0.2-0.5-0.4-0.9-0.5c-0.3-0.1-0.7-0.2-1-0.2c-0.4,0-0.8,0.1-1.1,0.3
	s-0.4,0.5-0.4,0.9c0,0.3,0.1,0.5,0.3,0.7s0.4,0.4,0.8,0.5c0.3,0.1,0.6,0.3,1,0.4c0.4,0.2,0.7,0.3,1,0.5s0.6,0.4,0.8,0.7
	s0.3,0.7,0.3,1c0,0.7-0.2,1.2-0.7,1.6c-0.5,0.5-1.1,0.7-2,0.7C158.7,59.2,157.8,58.8,157,58.2"/>
<path fill="#501C54" d="M189.7,55.1h1.7c0.5,0,0.9-0.1,1.2-0.4c0.3-0.3,0.4-0.7,0.4-1.1c0-0.5-0.1-0.9-0.4-1.1
	c-0.3-0.3-0.7-0.4-1.2-0.4h-1.7V55.1z M188.5,59v-8h3.1c0.8,0,1.4,0.2,1.9,0.7s0.7,1,0.7,1.8s-0.2,1.3-0.7,1.8s-1.1,0.7-1.9,0.7
	h-1.9v2.9L188.5,59L188.5,59z"/>
<rect x="220.1" y="51" fill="#501C54" width="1.2" height="8"/>
<path fill="#501C54" d="M249.1,54.9h1.7c0.5,0,0.8-0.1,1.1-0.4c0.3-0.3,0.4-0.7,0.4-1c0-0.7-0.3-1-0.8-1.2c-0.2-0.1-0.6-0.1-1-0.1
	h-1.4V54.9z M247.9,59v-8h2.7c0.7,0,1.2,0.1,1.6,0.2c0.4,0.2,0.7,0.5,1,0.8c0.2,0.4,0.4,0.8,0.4,1.3s-0.1,0.9-0.4,1.4
	c-0.3,0.4-0.6,0.7-1.1,0.9l0,0c0.1,0.1,0.1,0.2,0.2,0.4l1.8,3.1h-1.4l-1.8-3.2h-1.8v3.2L247.9,59L247.9,59z"/>
<polygon fill="#501C54" points="279.8,59 279.8,51 284.7,51 284.7,52 281,52 281,54.6 284,54.6 284,55.5 281,55.5 281,58.1 
	284.8,58.1 284.8,59 "/>
<polygon fill="#501C54" points="1.7,39.8 1.7,2.2 7.2,2.2 7.2,18 13,18 22.9,2.2 28.9,2.2 17.6,20 17.6,20.1 29.7,39.8 23.4,39.8 
	13,22.6 7.2,22.6 7.2,39.8 "/>
<path fill="#501C54" d="M55.1,20.2H63c2.2,0,3.9-0.7,5.1-1.9c1.3-1.2,1.9-2.9,1.9-5c0-2.9-1.2-4.9-3.7-5.9c-1-0.4-2.6-0.7-4.7-0.7
	h-6.5C55.1,6.7,55.1,20.2,55.1,20.2z M49.6,39.8V2.2H62c3.3,0,5.7,0.4,7.3,1c1.9,0.9,3.5,2.1,4.5,3.8s1.7,3.7,1.7,6.1
	s-0.6,4.6-1.9,6.5s-3,3.2-5,3.9v0.1c0.3,0.4,0.7,0.9,1.1,1.7L78,39.8h-6.2l-8.3-15h-8.4v15H49.6L49.6,39.8z"/>
<path fill="#501C54" d="M157.6,39.8V2.2h5.4l17.5,24.4l3.3,5.5h0.1c-0.2-2.3-0.3-4.1-0.3-5.5V2.2h5.4v37.6h-5.3l-17.5-24.4l-3.3-5.5
	h-0.2c0.2,2.3,0.3,4.1,0.3,5.5v24.4H157.6z"/>
<path fill="#501C54" d="M219.8,24.6h11.9l-4.3-11.9l-1.6-5.4h-0.1c-0.6,2.3-1.1,4.1-1.5,5.4L219.8,24.6z M208.9,39.8l14-37.6h5.8
	l14,37.6h-5.6l-4-10.8h-14.7l-4,10.8H208.9z"/>
<path fill="#501C54" d="M259.8,35.5l3.1-4c1.3,1.1,2.8,2.2,4.5,2.9c1.8,0.8,3.6,1.1,5.3,1.1c2.1,0,3.8-0.5,5-1.4
	c1.3-0.9,1.9-2.3,1.9-3.9c0-1.5-0.7-2.8-2-3.9c-1.3-1-2.9-2-4.7-2.8c-1.9-0.8-3.8-1.5-5.5-2.4c-1.9-0.9-3.5-2.1-4.7-3.6
	c-1.3-1.5-2-3.4-2-5.5c0-3.1,1.2-5.7,3.7-7.6s5.4-2.8,9.2-2.8c4.4,0,8.1,1.2,11,3.8L282,9.9c-1.1-0.9-2.5-1.8-4.1-2.4
	s-3.2-0.9-4.6-0.9c-2.1,0-3.8,0.5-5,1.4c-1.3,0.9-2,2.3-2,3.9c0,1.2,0.5,2.4,1.4,3.3s2.1,1.7,3.5,2.3s3,1.2,4.5,1.9
	c1.6,0.8,3.2,1.5,4.5,2.3s2.6,1.9,3.5,3.3s1.4,3,1.4,4.9c0,3-1.1,5.6-3.4,7.7c-2.2,2.1-5.2,3-9.2,3
	C267.6,40.4,263.2,38.8,259.8,35.5"/>
<path fill="#501C54" d="M304.6,40h-1v-1.8h-5.4h-0.5l0,0c0.1,0.1,0.3,0.2,0.5,0.4l0.8,0.8l-0.7,0.7l-2-1.9v-1h7.3v-1.8h1L304.6,40
	L304.6,40z"/>
<path fill="#501C54" d="M300.8,27.2c0-0.5-0.1-0.9-0.4-1.1c-0.2-0.3-0.5-0.5-0.8-0.5c-0.6,0-1.1,0.2-1.6,0.6s-0.7,0.8-0.7,1.2
	s0.2,0.8,0.5,1c0.3,0.3,0.7,0.4,1.2,0.4s1-0.2,1.3-0.5C300.6,28.2,300.8,27.8,300.8,27.2 M304.4,29.6l-1-0.4
	c0.2-0.4,0.3-0.8,0.3-1.1c0-0.7-0.3-1.2-0.8-1.6c-0.6-0.4-1.2-0.7-2-0.8l0,0c0.2,0.2,0.4,0.4,0.6,0.8c0.1,0.4,0.2,0.7,0.2,1
	c0,0.8-0.3,1.3-0.8,1.8s-1.2,0.7-2,0.7s-1.5-0.3-2-0.8s-0.8-1.1-0.8-1.8c0-0.9,0.4-1.6,1.1-2.2s1.7-0.9,2.9-0.9
	c0.6,0,1.1,0.1,1.7,0.2c0.5,0.2,1.1,0.4,1.5,0.7c0.5,0.3,0.8,0.7,1.1,1.1c0.3,0.5,0.4,1,0.4,1.6C304.8,28.6,304.7,29.1,304.4,29.6"
	/>
<path fill="#501C54" d="M300.8,15.9c0-0.5-0.1-0.9-0.4-1.1c-0.2-0.3-0.5-0.5-0.8-0.5c-0.6,0-1.1,0.2-1.6,0.6
	c-0.5,0.4-0.7,0.8-0.7,1.2c0,0.5,0.2,0.8,0.5,1c0.3,0.3,0.7,0.4,1.2,0.4s1-0.2,1.3-0.5C300.6,16.9,300.8,16.5,300.8,15.9
	 M304.4,18.3l-1-0.4c0.2-0.4,0.3-0.8,0.3-1.1c0-0.7-0.3-1.2-0.8-1.6c-0.6-0.4-1.2-0.7-2-0.8l0,0c0.2,0.2,0.4,0.4,0.6,0.8
	c0.1,0.3,0.2,0.7,0.2,1c0,0.8-0.3,1.3-0.8,1.8s-1.2,0.7-2,0.7s-1.5-0.3-2-0.8s-0.8-1.1-0.8-1.8c0-0.9,0.4-1.6,1.1-2.2
	c0.7-0.6,1.7-0.9,2.9-0.9c0.6,0,1.1,0.1,1.7,0.2c0.6,0.1,1.1,0.4,1.5,0.7c0.5,0.3,0.8,0.7,1.1,1.1c0.3,0.5,0.4,1,0.4,1.6
	C304.8,17.4,304.7,17.8,304.4,18.3"/>
<path fill="#501C54" d="M303.7,4.3c0-0.4-0.2-0.8-0.5-1s-0.7-0.4-1.2-0.4s-1,0.2-1.3,0.5s-0.5,0.7-0.5,1.2s0.1,0.9,0.3,1.1
	c0.2,0.3,0.5,0.5,0.9,0.5c0.5,0,1-0.2,1.5-0.6S303.7,4.8,303.7,4.3 M300.9,7.3c-0.4,0-0.9,0-1.3-0.1s-0.9-0.2-1.3-0.4
	c-0.4-0.2-0.8-0.4-1.1-0.7c-0.3-0.3-0.6-0.6-0.8-1c-0.2-0.4-0.3-0.9-0.3-1.3c0-0.6,0.1-1.1,0.3-1.5l1,0.4c-0.2,0.4-0.3,0.8-0.3,1.1
	c0,0.7,0.3,1.2,0.8,1.6c0.6,0.4,1.2,0.7,2,0.8l0,0c-0.2-0.2-0.4-0.4-0.6-0.8c-0.1-0.3-0.2-0.7-0.2-1c0-0.8,0.3-1.3,0.8-1.8
	s1.2-0.7,2-0.7s1.5,0.3,2,0.8s0.8,1.1,0.8,1.8c0,0.9-0.4,1.6-1.1,2.2C302.9,7,302,7.3,300.9,7.3"/>
</svg>
